<svg width="228" height="222" viewBox="0 0 228 222" fill="none" xmlns="http://www.w3.org/2000/svg">
<mask id="mask0_352_2375" style="mask-type:luminance" maskUnits="userSpaceOnUse" x="0" y="0" width="228" height="222">
<path d="M227.523 0H0V221.373H227.523V0Z" fill="white" style="fill:white;fill-opacity:1;"/>
</mask>
<g mask="url(#mask0_352_2375)">
<path d="M227.523 200.272H205.837V210.857H227.523V200.272Z" fill="#544777" style="fill:#544777;fill:color(display-p3 0.3308 0.2766 0.4682);fill-opacity:1;"/>
<path d="M205.837 210.857H195.029V221.373H205.837V210.857Z" fill="#544777" style="fill:#544777;fill:color(display-p3 0.3308 0.2766 0.4682);fill-opacity:1;"/>
<path d="M195.029 137.044H184.152V147.558H195.029V158.143H205.837V105.429H195.029V137.044Z" fill="#544777" style="fill:#544777;fill:color(display-p3 0.3308 0.2766 0.4682);fill-opacity:1;"/>
<path d="M195.029 200.272H173.344V210.857H195.029V200.272Z" fill="#544777" style="fill:#544777;fill:color(display-p3 0.3308 0.2766 0.4682);fill-opacity:1;"/>
<path d="M195.029 94.9133H184.152V105.429H195.029V94.9133Z" fill="#544777" style="fill:#544777;fill:color(display-p3 0.3308 0.2766 0.4682);fill-opacity:1;"/>
<path d="M173.344 189.758H151.659V200.273H173.344V189.758Z" fill="#544777" style="fill:#544777;fill:color(display-p3 0.3308 0.2766 0.4682);fill-opacity:1;"/>
<path d="M162.537 147.558H173.344V137.044H184.152V126.529H173.344V94.9136H184.152V84.3292H173.344V52.7144H162.537V147.558Z" fill="#544777" style="fill:#544777;fill:color(display-p3 0.3308 0.2766 0.4682);fill-opacity:1;"/>
<path d="M151.659 210.857H140.852V221.373H151.659V210.857Z" fill="#544777" style="fill:#544777;fill:color(display-p3 0.3308 0.2766 0.4682);fill-opacity:1;"/>
<path d="M151.659 126.529H140.852V137.044H151.659V126.529Z" fill="#544777" style="fill:#544777;fill:color(display-p3 0.3308 0.2766 0.4682);fill-opacity:1;"/>
<path d="M151.659 105.429H140.852V115.944H151.659V105.429Z" fill="#544777" style="fill:#544777;fill:color(display-p3 0.3308 0.2766 0.4682);fill-opacity:1;"/>
<path d="M140.852 189.758H129.973V210.857H140.852V189.758Z" fill="#544777" style="fill:#544777;fill:color(display-p3 0.3308 0.2766 0.4682);fill-opacity:1;"/>
<path d="M140.852 168.659H97.4788V179.242H140.852V168.659Z" fill="#544777" style="fill:#544777;fill:color(display-p3 0.3308 0.2766 0.4682);fill-opacity:1;"/>
<path d="M140.852 10.5151H129.973V21.0995H140.852V10.5151Z" fill="#544777" style="fill:#544777;fill:color(display-p3 0.3308 0.2766 0.4682);fill-opacity:1;"/>
<path d="M129.973 0H108.358V10.5152H129.973V0Z" fill="#544777" style="fill:#544777;fill:color(display-p3 0.3308 0.2766 0.4682);fill-opacity:1;"/>
<path d="M140.852 63.2296H129.973V52.7144H108.358V63.2296H119.165V73.814H108.358V63.2296H97.4788V84.3292H108.358V94.9136H129.973V84.3292H140.852V63.2296Z" fill="#544777" style="fill:#544777;fill:color(display-p3 0.3308 0.2766 0.4682);fill-opacity:1;"/>
<path d="M108.358 189.758H97.4788V210.857H108.358V189.758Z" fill="#544777" style="fill:#544777;fill:color(display-p3 0.3308 0.2766 0.4682);fill-opacity:1;"/>
<path d="M75.7937 158.143H86.6716V168.659H97.4788V158.143H140.852V168.659H151.658V158.143H162.537V147.558H75.7937V158.143Z" fill="#544777" style="fill:#544777;fill:color(display-p3 0.3308 0.2766 0.4682);fill-opacity:1;"/>
<path d="M108.358 10.5151H97.4788V21.0995H108.358V10.5151Z" fill="#544777" style="fill:#544777;fill:color(display-p3 0.3308 0.2766 0.4682);fill-opacity:1;"/>
<path d="M97.4788 210.857H86.6716V221.373H97.4788V210.857Z" fill="#544777" style="fill:#544777;fill:color(display-p3 0.3308 0.2766 0.4682);fill-opacity:1;"/>
<path d="M86.6716 189.758H64.9865V200.273H86.6716V189.758Z" fill="#544777" style="fill:#544777;fill:color(display-p3 0.3308 0.2766 0.4682);fill-opacity:1;"/>
<path d="M97.4788 31.6147V21.0996H86.6716V31.6147H75.7937V52.7143H86.6716V42.1991H151.658V52.7143H162.537V31.6147H151.658V21.0996H140.852V31.6147H97.4788Z" fill="#544777" style="fill:#544777;fill:color(display-p3 0.3308 0.2766 0.4682);fill-opacity:1;"/>
<path d="M75.7937 52.7144H64.9865V84.3292H54.1777V94.9136H64.9865V126.529H54.1777V137.044H64.9865V147.558H75.7937V52.7144Z" fill="#544777" style="fill:#544777;fill:color(display-p3 0.3308 0.2766 0.4682);fill-opacity:1;"/>
<path d="M64.9864 200.272H43.2998V210.857H64.9864V200.272Z" fill="#544777" style="fill:#544777;fill:color(display-p3 0.3308 0.2766 0.4682);fill-opacity:1;"/>
<path d="M54.1792 94.9133H43.2998V105.429H54.1792V94.9133Z" fill="#544777" style="fill:#544777;fill:color(display-p3 0.3308 0.2766 0.4682);fill-opacity:1;"/>
<path d="M43.3014 210.857H32.4941V221.373H43.3014V210.857Z" fill="#544777" style="fill:#544777;fill:color(display-p3 0.3308 0.2766 0.4682);fill-opacity:1;"/>
<path d="M43.3014 105.429H32.4941V158.143H43.3014V147.558H54.1792V137.044H43.3014V105.429Z" fill="#544777" style="fill:#544777;fill:color(display-p3 0.3308 0.2766 0.4682);fill-opacity:1;"/>
<path d="M32.4926 200.272H10.8075V210.857H32.4926V200.272Z" fill="#544777" style="fill:#544777;fill:color(display-p3 0.3308 0.2766 0.4682);fill-opacity:1;"/>
<path d="M10.8075 210.857H0V221.373H10.8075V210.857Z" fill="#544777" style="fill:#544777;fill:color(display-p3 0.3308 0.2766 0.4682);fill-opacity:1;"/>
</g>
</svg>
