<svg width="397" height="358" viewBox="0 0 397 358" fill="none" xmlns="http://www.w3.org/2000/svg">
<g filter="url(#filter0_di_7_431)">
<mask id="mask0_7_431" style="mask-type:luminance" maskUnits="userSpaceOnUse" x="115" y="25" width="167" height="163">
<path d="M281.338 25.927H115.661V187.188H281.338V25.927Z" fill="white" style="fill:white;fill-opacity:1;"/>
</mask>
<g mask="url(#mask0_7_431)">
<path d="M281.338 171.818H265.547V179.528H281.338V171.818Z" fill="white" style="fill:white;fill-opacity:1;"/>
<path d="M265.546 179.528H257.677V187.188H265.546V179.528Z" fill="white" style="fill:white;fill-opacity:1;"/>
<path d="M257.677 125.758H249.756V133.417H257.677V141.128H265.546V102.728H257.677V125.758Z" fill="white" style="fill:white;fill-opacity:1;"/>
<path d="M257.677 171.818H241.887V179.528H257.677V171.818Z" fill="white" style="fill:white;fill-opacity:1;"/>
<path d="M257.677 95.0674H249.756V102.728H257.677V95.0674Z" fill="white" style="fill:white;fill-opacity:1;"/>
<path d="M241.887 164.158H226.096V171.818H241.887V164.158Z" fill="white" style="fill:white;fill-opacity:1;"/>
<path d="M234.017 133.417H241.887V125.758H249.756V118.098H241.887V95.0681H249.756V87.3575H241.887V64.3274H234.017V133.417Z" fill="white" style="fill:white;fill-opacity:1;"/>
<path d="M226.096 179.528H218.226V187.188H226.096V179.528Z" fill="white" style="fill:white;fill-opacity:1;"/>
<path d="M226.096 118.098H218.226V125.758H226.096V118.098Z" fill="white" style="fill:white;fill-opacity:1;"/>
<path d="M226.096 102.728H218.226V110.388H226.096V102.728Z" fill="white" style="fill:white;fill-opacity:1;"/>
<path d="M218.226 164.158H210.304V179.528H218.226V164.158Z" fill="white" style="fill:white;fill-opacity:1;"/>
<path d="M218.226 148.788H186.643V156.498H218.226V148.788Z" fill="white" style="fill:white;fill-opacity:1;"/>
<path d="M218.226 33.5869H210.304V41.2972H218.226V33.5869Z" fill="white" style="fill:white;fill-opacity:1;"/>
<path d="M210.304 25.927H194.565V33.5869H210.304V25.927Z" fill="white" style="fill:white;fill-opacity:1;"/>
<path d="M218.226 71.9873H210.304V64.3274H194.564V71.9873H202.434V79.6976H194.564V71.9873H186.643V87.3575H194.564V95.0681H210.304V87.3575H218.226V71.9873Z" fill="white" style="fill:white;fill-opacity:1;"/>
<path d="M194.564 164.158H186.643V179.528H194.564V164.158Z" fill="white" style="fill:white;fill-opacity:1;"/>
<path d="M170.853 141.128H178.774V148.788H186.643V141.128H218.226V148.788H226.095V141.128H234.017V133.417H170.853V141.128Z" fill="white" style="fill:white;fill-opacity:1;"/>
<path d="M194.564 33.5869H186.643V41.2972H194.564V33.5869Z" fill="white" style="fill:white;fill-opacity:1;"/>
<path d="M186.643 179.528H178.773V187.188H186.643V179.528Z" fill="white" style="fill:white;fill-opacity:1;"/>
<path d="M178.774 164.158H162.983V171.818H178.774V164.158Z" fill="white" style="fill:white;fill-opacity:1;"/>
<path d="M186.643 48.9569V41.2971H178.774V48.9569H170.853V64.3271H178.774V56.6673H226.095V64.3271H234.017V48.9569H226.095V41.2971H218.226V48.9569H186.643Z" fill="white" style="fill:white;fill-opacity:1;"/>
<path d="M170.853 64.3274H162.983V87.3575H155.112V95.0681H162.983V118.098H155.112V125.758H162.983V133.417H170.853V64.3274Z" fill="white" style="fill:white;fill-opacity:1;"/>
<path d="M162.983 171.818H147.191V179.528H162.983V171.818Z" fill="white" style="fill:white;fill-opacity:1;"/>
<path d="M155.113 95.0674H147.191V102.728H155.113V95.0674Z" fill="white" style="fill:white;fill-opacity:1;"/>
<path d="M147.192 179.528H139.322V187.188H147.192V179.528Z" fill="white" style="fill:white;fill-opacity:1;"/>
<path d="M147.192 102.728H139.322V141.128H147.192V133.417H155.113V125.758H147.192V102.728Z" fill="white" style="fill:white;fill-opacity:1;"/>
<path d="M139.322 171.818H123.531V179.528H139.322V171.818Z" fill="white" style="fill:white;fill-opacity:1;"/>
<path d="M123.531 179.528H115.661V187.188H123.531V179.528Z" fill="white" style="fill:white;fill-opacity:1;"/>
</g>
</g>
<g filter="url(#filter1_di_7_431)">
<path d="M37.7021 282.885V277.521H32.3355V266.791H26.9688V229.309H32.3355V218.58H37.7021V213.215H85.9327V223.945H80.566V229.309H69.8675V223.945H48.4007V229.309H43.0688V240.004H75.2341V250.732H69.8675V256.098H59.134V250.732H48.4007V256.098H43.0688V266.791H48.4007V282.885H37.7021ZM102.022 282.885V277.521H96.6558V266.791H91.2891V240.004H96.6558V229.309H102.022V223.945H112.721V240.004H107.389V266.791H112.721V282.885H102.022ZM96.6558 218.58V213.215H91.2891V202.486H107.389V207.851H112.721V218.58H96.6558ZM118.106 282.885V272.156H123.473V261.462H128.84V256.098H134.207V250.732H128.84V245.368H123.473V234.639H118.106V223.945H134.207V234.639H139.539V240.004H144.905V245.368H150.272V240.004H155.639V234.639H161.005V223.945H177.071V234.639H171.704V245.368H166.372V250.732H161.005V256.098H166.372V261.462H171.704V272.156H177.071V282.885H161.005V272.156H155.639V266.791H150.272V261.462H144.905V266.791H139.539V272.156H134.207V282.885H118.106ZM193.16 282.885V277.521H187.793V266.791H182.427V229.309H187.793V218.58H193.16V213.215H203.858V229.309H198.527V245.368H209.225V240.004H225.325V229.309H219.958V213.215H230.692V218.58H236.024V229.309H241.391V266.791H236.024V277.521H230.692V282.885H219.958V266.791H225.325V250.732H209.225V256.098H198.527V266.791H203.858V282.885H193.16ZM257.48 282.885V277.521H252.114V272.156H246.746V240.004H252.114V229.309H257.48V223.945H268.18V240.004H262.847V266.791H268.18V272.156H278.913V266.791H284.279V261.462H289.646V240.004H284.279V223.945H295.013V229.309H300.344V240.004H305.711V282.885H289.646V277.521H284.279V282.885H257.48ZM348.599 272.156V266.791H353.966V250.732H348.599V245.368H343.232V240.004H327.167V266.791H332.499V272.156H348.599ZM321.8 282.885V277.521H316.433V266.791H311.067V229.309H316.433V218.58H321.8V213.215H332.499V229.309H348.599V234.639H359.332V240.004H364.664V250.732H370.031V272.156H364.664V277.521H359.332V282.885H321.8Z" fill="#FFF835" style="fill:#FFF835;fill:color(display-p3 1.0000 0.9735 0.2059);fill-opacity:1;"/>
</g>
<g filter="url(#filter2_di_7_431)">
<path d="M51.6436 347.485H50.0439V331.735H51.6436V347.485ZM47.5215 339.057H43.584V337.668H47.5215V339.057ZM48.3828 346.712H46.8096V332.087H48.3828V346.712ZM39.708 342.405C40.9854 342.405 42.0371 342.373 42.8633 342.309C43.6895 342.244 44.5273 342.121 45.377 341.939L45.5352 343.337C44.6797 343.513 43.8271 343.63 42.9775 343.688C42.1279 343.747 41.0381 343.782 39.708 343.794H38.6797V342.405H39.708ZM44.6475 334.987H40.3057V342.959H38.6797V333.634H44.6475V334.987ZM66.7168 347.529H65.0381V331.735H66.7168V347.529ZM58.2793 332.922C59.0645 332.922 59.7646 333.15 60.3799 333.607C60.9951 334.064 61.4756 334.709 61.8213 335.541C62.167 336.373 62.3398 337.343 62.3398 338.45C62.3398 339.563 62.167 340.536 61.8213 341.368C61.4756 342.2 60.9951 342.845 60.3799 343.302C59.7646 343.753 59.0645 343.979 58.2793 343.979C57.4941 343.979 56.791 343.753 56.1699 343.302C55.5547 342.845 55.0742 342.2 54.7285 341.368C54.3828 340.536 54.21 339.563 54.21 338.45C54.21 337.343 54.3828 336.373 54.7285 335.541C55.0742 334.709 55.5547 334.064 56.1699 333.607C56.791 333.15 57.4941 332.922 58.2793 332.922ZM58.2793 334.416C57.7988 334.416 57.3711 334.58 56.9961 334.908C56.6211 335.236 56.3311 335.705 56.126 336.314C55.9268 336.918 55.8271 337.63 55.8271 338.45C55.8271 339.265 55.9268 339.977 56.126 340.586C56.3311 341.195 56.6211 341.664 56.9961 341.992C57.3711 342.314 57.7988 342.476 58.2793 342.476C58.7598 342.476 59.1846 342.314 59.5537 341.992C59.9287 341.664 60.2188 341.195 60.4238 340.586C60.6289 339.977 60.7314 339.265 60.7314 338.45C60.7314 337.63 60.6289 336.918 60.4238 336.314C60.2188 335.705 59.9316 335.236 59.5625 334.908C59.1934 334.58 58.7656 334.416 58.2793 334.416ZM82.3613 347.529H80.7002V331.735H82.3613V347.529ZM80.9463 338.916H77.5625V337.554H80.9463V338.916ZM71.1641 342.423C72.6992 342.429 73.9883 342.399 75.0312 342.335C76.0742 342.271 77.126 342.15 78.1865 341.975L78.3623 343.337C77.2607 343.507 76.168 343.627 75.084 343.697C74 343.762 72.6934 343.794 71.1641 343.794H69.9424V342.423H71.1641ZM77.3076 334.513H71.6211V342.871H69.9424V333.142H77.3076V334.513ZM76.6484 338.898H71.208V337.562H76.6484V338.898ZM89.9199 332.852C90.7461 332.852 91.4814 333.013 92.126 333.335C92.7705 333.651 93.2744 334.097 93.6377 334.671C94.0068 335.239 94.1914 335.887 94.1914 336.613C94.1914 337.34 94.0068 337.99 93.6377 338.564C93.2744 339.133 92.7705 339.578 92.126 339.9C91.4814 340.217 90.7461 340.375 89.9199 340.375C89.0996 340.375 88.3613 340.217 87.7051 339.9C87.0488 339.578 86.5361 339.133 86.167 338.564C85.8037 337.99 85.6221 337.34 85.6221 336.613C85.6221 335.887 85.8037 335.239 86.167 334.671C86.5361 334.097 87.0488 333.651 87.7051 333.335C88.3613 333.013 89.0996 332.852 89.9199 332.852ZM89.9199 334.311C89.4102 334.311 88.9531 334.404 88.5488 334.592C88.1504 334.779 87.8369 335.049 87.6084 335.4C87.3799 335.752 87.2656 336.156 87.2656 336.613C87.2656 337.07 87.3799 337.472 87.6084 337.817C87.8369 338.163 88.1504 338.433 88.5488 338.626C88.9531 338.819 89.4102 338.916 89.9199 338.916C90.4297 338.916 90.8838 338.819 91.2822 338.626C91.6865 338.433 92 338.163 92.2227 337.817C92.4512 337.472 92.5654 337.07 92.5654 336.613C92.5654 336.156 92.4512 335.752 92.2227 335.4C92 335.049 91.6865 334.779 91.2822 334.592C90.8838 334.404 90.4297 334.311 89.9199 334.311ZM97.8037 347.529H96.1426V331.735H97.8037V347.529ZM84.8574 342.748C86.1582 342.742 87.3359 342.728 88.3906 342.704C89.4512 342.681 90.5762 342.634 91.7656 342.563C92.9609 342.487 94.0889 342.373 95.1494 342.221L95.2725 343.442C94.1768 343.642 93.0371 343.794 91.8535 343.899C90.6758 343.999 89.5684 344.063 88.5312 344.093C87.4941 344.122 86.3428 344.137 85.0771 344.137L84.8574 342.748ZM111.84 341.649C112.982 341.649 113.97 341.764 114.802 341.992C115.634 342.215 116.275 342.546 116.727 342.985C117.178 343.425 117.403 343.952 117.403 344.567C117.403 345.165 117.178 345.681 116.727 346.114C116.275 346.548 115.631 346.882 114.793 347.116C113.955 347.351 112.971 347.468 111.84 347.468C110.715 347.468 109.736 347.351 108.904 347.116C108.072 346.882 107.431 346.548 106.979 346.114C106.528 345.681 106.303 345.165 106.303 344.567C106.303 343.958 106.528 343.434 106.979 342.994C107.431 342.549 108.072 342.215 108.904 341.992C109.736 341.764 110.715 341.649 111.84 341.649ZM111.84 342.906C111.049 342.906 110.36 342.974 109.774 343.108C109.188 343.237 108.737 343.428 108.421 343.68C108.11 343.926 107.955 344.222 107.955 344.567C107.955 344.896 108.11 345.183 108.421 345.429C108.737 345.669 109.188 345.854 109.774 345.982C110.36 346.105 111.049 346.167 111.84 346.167C112.643 346.167 113.334 346.105 113.914 345.982C114.5 345.854 114.951 345.666 115.268 345.42C115.584 345.174 115.742 344.89 115.742 344.567C115.742 344.222 115.584 343.926 115.268 343.68C114.951 343.428 114.5 343.237 113.914 343.108C113.334 342.974 112.643 342.906 111.84 342.906ZM116.586 333.854H106.426V332.518H116.586V333.854ZM119.073 340.34H104.756V338.986H119.073V340.34ZM112.139 339.382H110.495V336.033H112.139V339.382ZM117.298 333.827C117.298 334.683 117.271 335.415 117.219 336.024C117.172 336.628 117.049 337.296 116.85 338.028L115.215 337.844C115.402 337.117 115.517 336.47 115.558 335.901C115.604 335.333 115.631 334.642 115.637 333.827V332.518H117.298V333.827ZM122.527 335.154H125.577V332.746H127.133V340.173H120.954V332.746H122.527V335.154ZM125.577 338.819V336.464H122.527V338.819H125.577ZM133.716 341.21H132.125V331.753H133.716V341.21ZM132.608 337.132H129.743V335.761H132.608V337.132ZM130.297 341.122H128.741V332.043H130.297V341.122ZM133.716 347.485H132.072V343.451H123.011V342.089H133.716V347.485ZM143.023 331.999C144.207 331.999 145.218 332.104 146.056 332.315C146.894 332.521 147.532 332.825 147.972 333.229C148.417 333.634 148.64 334.123 148.64 334.697C148.64 335.283 148.417 335.781 147.972 336.191C147.532 336.596 146.894 336.903 146.056 337.114C145.218 337.325 144.207 337.437 143.023 337.448C141.84 337.437 140.826 337.325 139.982 337.114C139.145 336.903 138.5 336.596 138.049 336.191C137.604 335.781 137.381 335.283 137.381 334.697C137.381 334.123 137.604 333.634 138.049 333.229C138.5 332.825 139.145 332.521 139.982 332.315C140.826 332.104 141.84 331.999 143.023 331.999ZM143.023 333.238C142.191 333.238 141.482 333.294 140.896 333.405C140.316 333.517 139.877 333.684 139.578 333.906C139.279 334.129 139.13 334.393 139.13 334.697C139.13 335.031 139.276 335.31 139.569 335.532C139.862 335.749 140.299 335.913 140.879 336.024C141.459 336.136 142.174 336.191 143.023 336.191C143.873 336.191 144.588 336.136 145.168 336.024C145.748 335.913 146.185 335.746 146.478 335.523C146.776 335.295 146.926 335.02 146.926 334.697C146.926 334.393 146.773 334.132 146.469 333.915C146.17 333.698 145.728 333.531 145.142 333.414C144.562 333.297 143.855 333.238 143.023 333.238ZM150.204 339.742H135.843V338.406H150.204V339.742ZM148.385 344.646H139.227V346.396H137.583V343.442H146.75V342.203H137.557V340.955H148.385V344.646ZM148.842 347.336H137.583V346.044H148.842V347.336ZM162.438 343.346H156.33V333.511H162.438V343.346ZM157.895 342.019H160.874V334.838H157.895V342.019ZM169.347 347.485H167.738V331.735H169.347V347.485ZM165.251 338.978H161.621V337.615H165.251V338.978ZM166.139 346.712H164.557V332.034H166.139V346.712ZM185.747 342.08H171.333V340.691H185.747V342.08ZM179.322 347.494H177.679V341.535H179.322V347.494ZM178.505 332.333C179.612 332.333 180.591 332.477 181.44 332.764C182.29 333.045 182.946 333.452 183.409 333.985C183.878 334.513 184.112 335.134 184.112 335.849C184.112 336.534 183.878 337.138 183.409 337.659C182.946 338.181 182.29 338.585 181.44 338.872C180.591 339.153 179.612 339.294 178.505 339.294C177.397 339.294 176.419 339.153 175.569 338.872C174.726 338.585 174.069 338.181 173.601 337.659C173.132 337.138 172.897 336.534 172.897 335.849C172.897 335.134 173.132 334.513 173.601 333.985C174.069 333.452 174.726 333.045 175.569 332.764C176.419 332.477 177.397 332.333 178.505 332.333ZM178.505 333.687C177.726 333.687 177.043 333.771 176.457 333.941C175.871 334.111 175.417 334.36 175.095 334.688C174.778 335.017 174.62 335.403 174.62 335.849C174.62 336.276 174.778 336.651 175.095 336.974C175.417 337.29 175.871 337.536 176.457 337.712C177.043 337.882 177.726 337.967 178.505 337.967C179.284 337.967 179.97 337.882 180.562 337.712C181.153 337.536 181.607 337.29 181.924 336.974C182.246 336.651 182.407 336.276 182.407 335.849C182.407 335.403 182.246 335.017 181.924 334.688C181.607 334.36 181.153 334.111 180.562 333.941C179.97 333.771 179.284 333.687 178.505 333.687ZM199.669 337.677H188.797V336.358H199.669V337.677ZM201.304 341.008H186.89V339.672H201.304V341.008ZM190.458 337.026H188.797V332.315H190.458V337.026ZM199.757 347.116H188.691V345.745H199.757V347.116ZM190.361 346.141H188.691V342.511H190.361V346.141ZM221.255 342.08H206.841V340.691H221.255V342.08ZM214.83 347.494H213.187V341.535H214.83V347.494ZM214.013 332.333C215.12 332.333 216.099 332.477 216.948 332.764C217.798 333.045 218.454 333.452 218.917 333.985C219.386 334.513 219.62 335.134 219.62 335.849C219.62 336.534 219.386 337.138 218.917 337.659C218.454 338.181 217.798 338.585 216.948 338.872C216.099 339.153 215.12 339.294 214.013 339.294C212.905 339.294 211.927 339.153 211.077 338.872C210.233 338.585 209.577 338.181 209.108 337.659C208.64 337.138 208.405 336.534 208.405 335.849C208.405 335.134 208.64 334.513 209.108 333.985C209.577 333.452 210.233 333.045 211.077 332.764C211.927 332.477 212.905 332.333 214.013 332.333ZM214.013 333.687C213.233 333.687 212.551 333.771 211.965 333.941C211.379 334.111 210.925 334.36 210.603 334.688C210.286 335.017 210.128 335.403 210.128 335.849C210.128 336.276 210.286 336.651 210.603 336.974C210.925 337.29 211.379 337.536 211.965 337.712C212.551 337.882 213.233 337.967 214.013 337.967C214.792 337.967 215.478 337.882 216.069 337.712C216.661 337.536 217.115 337.29 217.432 336.974C217.754 336.651 217.915 336.276 217.915 335.849C217.915 335.403 217.754 335.017 217.432 334.688C217.115 334.36 216.661 334.111 216.069 333.941C215.478 333.771 214.792 333.687 214.013 333.687ZM235.484 347.529H233.823V331.735H235.484V347.529ZM224.656 342.353C226.115 342.358 227.451 342.32 228.664 342.238C229.883 342.156 231.14 342.013 232.435 341.808L232.602 343.179C231.289 343.396 230.018 343.545 228.787 343.627C227.557 343.703 226.18 343.741 224.656 343.741H223.312V342.353H224.656ZM230.668 338.916H225.017V342.88H223.312V337.58H228.98V334.521H223.285V333.159H230.668V338.916ZM244.572 338.898C245.844 338.898 246.875 338.89 247.666 338.872C248.463 338.854 249.213 338.816 249.916 338.758C250.625 338.693 251.346 338.6 252.078 338.477L252.245 339.804C251.185 339.991 250.124 340.111 249.063 340.164C248.003 340.217 246.506 340.243 244.572 340.243H243.271V338.898H244.572ZM250.848 334.047H244.95V339.54H243.271V332.685H250.848V334.047ZM250.399 337.079H244.414V335.761H250.399V337.079ZM255.427 341.131H253.766V331.753H255.427V341.131ZM255.427 347.292H245.082V341.86H255.427V347.292ZM246.726 345.938H253.792V343.188H246.726V345.938ZM263.064 332.852C263.891 332.852 264.626 333.013 265.271 333.335C265.915 333.651 266.419 334.097 266.782 334.671C267.151 335.239 267.336 335.887 267.336 336.613C267.336 337.34 267.151 337.99 266.782 338.564C266.419 339.133 265.915 339.578 265.271 339.9C264.626 340.217 263.891 340.375 263.064 340.375C262.244 340.375 261.506 340.217 260.85 339.9C260.193 339.578 259.681 339.133 259.312 338.564C258.948 337.99 258.767 337.34 258.767 336.613C258.767 335.887 258.948 335.239 259.312 334.671C259.681 334.097 260.193 333.651 260.85 333.335C261.506 333.013 262.244 332.852 263.064 332.852ZM263.064 334.311C262.555 334.311 262.098 334.404 261.693 334.592C261.295 334.779 260.981 335.049 260.753 335.4C260.524 335.752 260.41 336.156 260.41 336.613C260.41 337.07 260.524 337.472 260.753 337.817C260.981 338.163 261.295 338.433 261.693 338.626C262.098 338.819 262.555 338.916 263.064 338.916C263.574 338.916 264.028 338.819 264.427 338.626C264.831 338.433 265.145 338.163 265.367 337.817C265.596 337.472 265.71 337.07 265.71 336.613C265.71 336.156 265.596 335.752 265.367 335.4C265.145 335.049 264.831 334.779 264.427 334.592C264.028 334.404 263.574 334.311 263.064 334.311ZM270.948 347.529H269.287V331.735H270.948V347.529ZM258.002 342.748C259.303 342.742 260.48 342.728 261.535 342.704C262.596 342.681 263.721 342.634 264.91 342.563C266.105 342.487 267.233 342.373 268.294 342.221L268.417 343.442C267.321 343.642 266.182 343.794 264.998 343.899C263.82 343.999 262.713 344.063 261.676 344.093C260.639 344.122 259.487 344.137 258.222 344.137L258.002 342.748ZM287.19 339.136H284.29V337.773H287.19V339.136ZM291.427 347.485H289.818V331.735H291.427V347.485ZM288.219 346.712H286.637V332.034H288.219V346.712ZM281.451 332.992C282.137 332.992 282.737 333.218 283.253 333.669C283.769 334.114 284.167 334.756 284.448 335.594C284.735 336.432 284.879 337.416 284.879 338.547C284.879 339.666 284.735 340.645 284.448 341.482C284.167 342.32 283.769 342.968 283.253 343.425C282.737 343.876 282.137 344.104 281.451 344.11C280.771 344.104 280.174 343.876 279.658 343.425C279.143 342.968 278.744 342.32 278.463 341.482C278.188 340.645 278.05 339.666 278.05 338.547C278.05 337.416 278.188 336.432 278.463 335.594C278.744 334.756 279.143 334.114 279.658 333.669C280.174 333.218 280.771 332.992 281.451 332.992ZM281.451 334.574C281.064 334.568 280.733 334.724 280.458 335.04C280.183 335.356 279.972 335.813 279.825 336.411C279.679 337.003 279.605 337.715 279.605 338.547C279.605 339.367 279.679 340.076 279.825 340.674C279.972 341.271 280.186 341.729 280.467 342.045C280.748 342.355 281.076 342.511 281.451 342.511C281.832 342.511 282.163 342.355 282.444 342.045C282.726 341.729 282.942 341.271 283.095 340.674C283.247 340.076 283.323 339.367 283.323 338.547C283.323 337.715 283.247 337.003 283.095 336.411C282.942 335.813 282.726 335.356 282.444 335.04C282.163 334.724 281.832 334.568 281.451 334.574ZM306.544 347.529H304.892V331.735H306.544V347.529ZM305.278 339.048H302.009V337.668H305.278V339.048ZM295.25 342.37C296.791 342.37 298.086 342.338 299.135 342.273C300.189 342.209 301.256 342.077 302.334 341.878L302.466 343.267C301.364 343.46 300.269 343.592 299.179 343.662C298.089 343.727 296.779 343.765 295.25 343.776H294.02V342.37H295.25ZM301.077 338.802H295.681V342.81H294.02V337.448H299.451V334.521H293.967V333.159H301.077V338.802ZM321.169 334.319H314.217V332.931H321.169V334.319ZM318.137 340.428H316.484V336.473H318.137V340.428ZM322.153 333.818C322.142 334.697 322.115 335.471 322.074 336.139C322.033 336.807 321.928 337.58 321.758 338.459L320.097 338.327C320.278 337.425 320.39 336.651 320.431 336.007C320.478 335.356 320.507 334.627 320.519 333.818V332.931H322.153V333.818ZM325.845 343.565H324.14V331.735H325.845V343.565ZM328.016 338.169H325.124V336.763H328.016V338.169ZM326.354 347.178H315.641V345.798H326.354V347.178ZM317.319 346.237H315.641V342.511H317.319V346.237ZM313.25 339.821C315.236 339.815 317.026 339.78 318.62 339.716C320.214 339.651 321.726 339.517 323.155 339.312L323.243 340.533C321.784 340.785 320.231 340.958 318.585 341.052C316.938 341.14 315.213 341.184 313.408 341.184L313.25 339.821ZM343.3 340.99H328.938V339.646H343.3V340.99ZM341.533 347.485H339.863V343.855H330.529V342.52H341.533V347.485ZM336.928 333.968H335.284V331.727H336.928V333.968ZM336.655 334.407C336.655 335.228 336.38 335.954 335.829 336.587C335.284 337.22 334.528 337.729 333.562 338.116C332.595 338.497 331.487 338.749 330.239 338.872L329.703 337.58C330.793 337.492 331.751 337.305 332.577 337.018C333.409 336.725 334.051 336.355 334.502 335.91C334.959 335.459 335.188 334.958 335.188 334.407V334.126H336.655V334.407ZM337.033 334.407C337.033 334.958 337.259 335.459 337.71 335.91C338.167 336.355 338.809 336.725 339.635 337.018C340.467 337.305 341.428 337.492 342.518 337.58L341.981 338.872C340.733 338.749 339.626 338.497 338.659 338.116C337.692 337.729 336.934 337.22 336.383 336.587C335.838 335.954 335.565 335.228 335.565 334.407V334.126H337.033V334.407ZM341.867 334.609H330.389V333.291H341.867V334.609ZM358.909 345.49H344.495V344.137H358.909V345.49ZM352.449 344.55H350.797V340.366H352.449V344.55ZM352.203 333.933C352.203 335.017 351.907 336.03 351.315 336.974C350.724 337.917 349.933 338.711 348.942 339.355C347.952 339.994 346.877 340.428 345.717 340.656L344.987 339.276C345.995 339.106 346.938 338.755 347.817 338.222C348.702 337.688 349.408 337.044 349.936 336.288C350.469 335.532 350.735 334.747 350.735 333.933V332.764H352.203V333.933ZM352.493 333.933C352.493 334.753 352.76 335.541 353.293 336.297C353.832 337.047 354.544 337.688 355.429 338.222C356.319 338.755 357.269 339.106 358.276 339.276L357.547 340.656C356.381 340.422 355.303 339.988 354.312 339.355C353.322 338.717 352.531 337.929 351.939 336.991C351.354 336.054 351.061 335.034 351.061 333.933V332.764H352.493V333.933Z" fill="white" style="fill:white;fill-opacity:1;"/>
</g>
<defs>
<filter id="filter0_di_7_431" x="105.661" y="15.927" width="185.677" height="181.261" filterUnits="userSpaceOnUse" color-interpolation-filters="sRGB">
<feFlood flood-opacity="0" result="BackgroundImageFix"/>
<feColorMatrix in="SourceAlpha" type="matrix" values="0 0 0 0 0 0 0 0 0 0 0 0 0 0 0 0 0 0 127 0" result="hardAlpha"/>
<feOffset/>
<feGaussianBlur stdDeviation="5"/>
<feComposite in2="hardAlpha" operator="out"/>
<feColorMatrix type="matrix" values="0 0 0 0 0.997746 0 0 0 0 0.990213 0 0 0 0 0.771732 0 0 0 0.8 0"/>
<feBlend mode="normal" in2="BackgroundImageFix" result="effect1_dropShadow_7_431"/>
<feBlend mode="normal" in="SourceGraphic" in2="effect1_dropShadow_7_431" result="shape"/>
<feColorMatrix in="SourceAlpha" type="matrix" values="0 0 0 0 0 0 0 0 0 0 0 0 0 0 0 0 0 0 127 0" result="hardAlpha"/>
<feOffset/>
<feGaussianBlur stdDeviation="2.5"/>
<feComposite in2="hardAlpha" operator="arithmetic" k2="-1" k3="1"/>
<feColorMatrix type="matrix" values="0 0 0 0 1 0 0 0 0 1 0 0 0 0 1 0 0 0 0.8 0"/>
<feBlend mode="normal" in2="shape" result="effect2_innerShadow_7_431"/>
</filter>
<filter id="filter1_di_7_431" x="16.9688" y="192.486" width="363.062" height="100.399" filterUnits="userSpaceOnUse" color-interpolation-filters="sRGB">
<feFlood flood-opacity="0" result="BackgroundImageFix"/>
<feColorMatrix in="SourceAlpha" type="matrix" values="0 0 0 0 0 0 0 0 0 0 0 0 0 0 0 0 0 0 127 0" result="hardAlpha"/>
<feOffset/>
<feGaussianBlur stdDeviation="5"/>
<feComposite in2="hardAlpha" operator="out"/>
<feColorMatrix type="matrix" values="0 0 0 0 0.997746 0 0 0 0 0.990213 0 0 0 0 0.771732 0 0 0 0.8 0"/>
<feBlend mode="normal" in2="BackgroundImageFix" result="effect1_dropShadow_7_431"/>
<feBlend mode="normal" in="SourceGraphic" in2="effect1_dropShadow_7_431" result="shape"/>
<feColorMatrix in="SourceAlpha" type="matrix" values="0 0 0 0 0 0 0 0 0 0 0 0 0 0 0 0 0 0 127 0" result="hardAlpha"/>
<feOffset/>
<feGaussianBlur stdDeviation="2.5"/>
<feComposite in2="hardAlpha" operator="arithmetic" k2="-1" k3="1"/>
<feColorMatrix type="matrix" values="0 0 0 0 1 0 0 0 0 1 0 0 0 0 1 0 0 0 0.8 0"/>
<feBlend mode="normal" in2="shape" result="effect2_innerShadow_7_431"/>
</filter>
<filter id="filter2_di_7_431" x="28.6797" y="321.727" width="340.229" height="35.8027" filterUnits="userSpaceOnUse" color-interpolation-filters="sRGB">
<feFlood flood-opacity="0" result="BackgroundImageFix"/>
<feColorMatrix in="SourceAlpha" type="matrix" values="0 0 0 0 0 0 0 0 0 0 0 0 0 0 0 0 0 0 127 0" result="hardAlpha"/>
<feOffset/>
<feGaussianBlur stdDeviation="5"/>
<feComposite in2="hardAlpha" operator="out"/>
<feColorMatrix type="matrix" values="0 0 0 0 0.997746 0 0 0 0 0.990213 0 0 0 0 0.771732 0 0 0 0.8 0"/>
<feBlend mode="normal" in2="BackgroundImageFix" result="effect1_dropShadow_7_431"/>
<feBlend mode="normal" in="SourceGraphic" in2="effect1_dropShadow_7_431" result="shape"/>
<feColorMatrix in="SourceAlpha" type="matrix" values="0 0 0 0 0 0 0 0 0 0 0 0 0 0 0 0 0 0 127 0" result="hardAlpha"/>
<feOffset/>
<feGaussianBlur stdDeviation="2.5"/>
<feComposite in2="hardAlpha" operator="arithmetic" k2="-1" k3="1"/>
<feColorMatrix type="matrix" values="0 0 0 0 1 0 0 0 0 1 0 0 0 0 1 0 0 0 0.8 0"/>
<feBlend mode="normal" in2="shape" result="effect2_innerShadow_7_431"/>
</filter>
</defs>
</svg>
