<svg width="195" height="195" viewBox="0 0 195 195" fill="none" xmlns="http://www.w3.org/2000/svg">
<g clip-path="url(#clip0_48_29325)">
<path d="M195 167.152H185.737V185.737H195V167.152Z" fill="white" style="fill:white;fill-opacity:1;"/>
<path d="M185.737 148.566H176.414V167.152H185.737V148.566Z" fill="white" style="fill:white;fill-opacity:1;"/>
<path d="M185.738 185.737H9.26251V195H185.738V185.737Z" fill="white" style="fill:white;fill-opacity:1;"/>
<path d="M176.414 129.98H167.152V148.566H176.414V129.98Z" fill="white" style="fill:white;fill-opacity:1;"/>
<path d="M167.152 111.455H157.828V129.98H167.152V111.455Z" fill="white" style="fill:white;fill-opacity:1;"/>
<path d="M157.828 92.8687H148.566V111.455H157.828V92.8687Z" fill="white" style="fill:white;fill-opacity:1;"/>
<path d="M148.566 74.2828H139.303V92.8687H148.566V74.2828Z" fill="white" style="fill:white;fill-opacity:1;"/>
<path d="M139.303 55.6969H129.98V74.2828H139.303V55.6969Z" fill="white" style="fill:white;fill-opacity:1;"/>
<path d="M129.98 37.1109H120.717V55.6969H129.98V37.1109Z" fill="white" style="fill:white;fill-opacity:1;"/>
<path d="M120.717 18.5859H111.455V37.1109H120.717V18.5859Z" fill="white" style="fill:white;fill-opacity:1;"/>
<path d="M111.455 129.98H83.5453V139.303H74.2828V167.152H83.5453V176.414H111.455V167.152H120.717V139.303H111.455V129.98Z" fill="white" style="fill:white;fill-opacity:1;"/>
<path d="M111.455 55.6969H83.5453V65.0203H74.2828V102.131H83.5453V120.717H111.455V102.131H120.717V65.0203H111.455V55.6969ZM111.455 92.8687H102.131V74.2828H92.8687V65.0203H102.131V74.2828H111.455V92.8687Z" fill="white" style="fill:white;fill-opacity:1;"/>
<path d="M111.455 9.26251H102.131V18.5859H111.455V9.26251Z" fill="white" style="fill:white;fill-opacity:1;"/>
<path d="M102.131 0H92.8687V9.2625H102.131V0Z" fill="white" style="fill:white;fill-opacity:1;"/>
<path d="M92.8688 9.26251H83.5453V18.5859H92.8688V9.26251Z" fill="white" style="fill:white;fill-opacity:1;"/>
<path d="M83.5453 18.5859H74.2828V37.1109H83.5453V18.5859Z" fill="white" style="fill:white;fill-opacity:1;"/>
<path d="M74.2828 37.1109H65.0203V55.6969H74.2828V37.1109Z" fill="white" style="fill:white;fill-opacity:1;"/>
<path d="M65.0203 55.6969H55.6969V74.2828H65.0203V55.6969Z" fill="white" style="fill:white;fill-opacity:1;"/>
<path d="M55.6969 74.2828H46.4344V92.8687H55.6969V74.2828Z" fill="white" style="fill:white;fill-opacity:1;"/>
<path d="M46.4344 92.8687H37.1109V111.455H46.4344V92.8687Z" fill="white" style="fill:white;fill-opacity:1;"/>
<path d="M37.1109 111.455H27.8484V129.98H37.1109V111.455Z" fill="white" style="fill:white;fill-opacity:1;"/>
<path d="M27.8484 129.98H18.5859V148.566H27.8484V129.98Z" fill="white" style="fill:white;fill-opacity:1;"/>
<path d="M18.5859 148.566H9.26251V167.152H18.5859V148.566Z" fill="white" style="fill:white;fill-opacity:1;"/>
<path d="M9.2625 167.152H0V185.737H9.2625V167.152Z" fill="white" style="fill:white;fill-opacity:1;"/>
</g>
<defs>
<clipPath id="clip0_48_29325">
<rect width="195" height="195" fill="white" style="fill:white;fill-opacity:1;"/>
</clipPath>
</defs>
</svg>
