<svg width="12" height="7" viewBox="0 0 12 7" fill="none" xmlns="http://www.w3.org/2000/svg">
<g clip-path="url(#clip0_142_895)">
<path fill-rule="evenodd" clip-rule="evenodd" d="M11.8246 6.76707C12.0586 6.50934 12.0586 6.09252 11.8246 5.83543L6.86622 0.386248C6.75692 0.26427 6.62537 0.167143 6.47958 0.100774C6.33378 0.0344052 6.17678 0.000180244 6.01812 0.000180244C5.85946 0.000180244 5.70246 0.0344052 5.55666 0.100774C5.41086 0.167143 5.27931 0.26427 5.17002 0.386248L0.175017 5.87488C0.0633855 5.99945 0.000641209 6.16441 -0.00047318 6.33626C-0.00158757 6.50811 0.0590115 6.67397 0.169017 6.80016C0.223341 6.86267 0.289186 6.91268 0.362475 6.94711C0.435763 6.98153 0.514934 6.99963 0.595086 7.00029C0.675238 7.00094 0.754663 6.98414 0.828444 6.95092C0.902224 6.9177 0.96879 6.86877 1.02402 6.80716L5.59422 1.7837C5.64887 1.72266 5.71466 1.67406 5.78759 1.64084C5.86052 1.60763 5.93905 1.5905 6.01842 1.5905C6.09778 1.5905 6.17632 1.60763 6.24925 1.64084C6.32217 1.67406 6.38796 1.72266 6.44262 1.7837L10.9768 6.76707C11.0314 6.82809 11.0972 6.87668 11.17 6.90989C11.2429 6.94309 11.3214 6.96022 11.4007 6.96022C11.48 6.96022 11.5585 6.94309 11.6314 6.90989C11.7043 6.87668 11.77 6.82809 11.8246 6.76707Z" fill="white" style="fill:white;fill-opacity:1;"/>
</g>
<defs>
<clipPath id="clip0_142_895">
<rect width="7" height="12" fill="white" style="fill:white;fill-opacity:1;" transform="matrix(0 -1 1 0 0 7)"/>
</clipPath>
</defs>
</svg>
