<svg width="24" height="24" viewBox="0 0 24 24" fill="none" xmlns="http://www.w3.org/2000/svg">
<g clip-path="url(#clip0_142_875)">
<path d="M22.8598 4.57495H21.7198V5.71495H20.5723V6.86245H21.7198V8.00245H22.8598V6.86245H23.9998V5.71495H22.8598V4.57495Z" fill="white" style="fill:white;fill-opacity:1;"/>
<path d="M22.86 13.7174H21.72V12.5774H19.4325V8.00244H11.43V12.5774H3.4275V13.7174H2.2875V14.8574H1.1475V16.0049H0V17.1449H3.4275V23.9999H20.5725V17.1449H24V14.8574H22.86V13.7174ZM12.57 9.14244H18.285V12.5774H12.57V9.14244ZM13.7175 22.8599H4.575V17.1449H12.57V16.0049H13.7175V22.8599ZM19.4325 22.8599H14.8575V13.7174H19.4325V22.8599Z" fill="white" style="fill:white;fill-opacity:1;"/>
<path d="M16.0049 2.28748H14.8574V3.43498H16.0049V2.28748Z" fill="white" style="fill:white;fill-opacity:1;"/>
<path d="M12.5698 0V5.715H18.2848V4.575H17.1448V3.435H16.0048V4.575H13.7173V2.2875H14.8573V1.1475H13.7173V0H12.5698Z" fill="white" style="fill:white;fill-opacity:1;"/>
<path d="M10.2901 5.71497H9.14258V9.14247H10.2901V5.71497Z" fill="white" style="fill:white;fill-opacity:1;"/>
<path d="M9.14244 9.14246H8.00244V10.29H9.14244V9.14246Z" fill="white" style="fill:white;fill-opacity:1;"/>
<path d="M9.14244 4.57495H8.00244V5.71495H9.14244V4.57495Z" fill="white" style="fill:white;fill-opacity:1;"/>
<path d="M8.0027 10.29H4.5752V11.43H8.0027V10.29Z" fill="white" style="fill:white;fill-opacity:1;"/>
<path d="M8.0027 3.43506H4.5752V4.57506H8.0027V3.43506Z" fill="white" style="fill:white;fill-opacity:1;"/>
<path d="M4.57523 9.14246H3.42773V10.29H4.57523V9.14246Z" fill="white" style="fill:white;fill-opacity:1;"/>
<path d="M4.57523 4.57495H3.42773V5.71495H4.57523V4.57495Z" fill="white" style="fill:white;fill-opacity:1;"/>
<path d="M3.4276 5.71497H2.2876V9.14247H3.4276V5.71497Z" fill="white" style="fill:white;fill-opacity:1;"/>
<path d="M2.28746 1.14746H1.14746V2.28746H2.28746V1.14746Z" fill="white" style="fill:white;fill-opacity:1;"/>
</g>
<defs>
<clipPath id="clip0_142_875">
<rect width="24" height="24" fill="white" style="fill:white;fill-opacity:1;"/>
</clipPath>
</defs>
</svg>
