<svg width="24" height="24" viewBox="0 0 24 24" fill="none" xmlns="http://www.w3.org/2000/svg">
<g clip-path="url(#clip0_142_852)">
<path d="M0.57373 12.57H2.85373V11.43H4.00123V10.2825H5.14123V9.1425H6.28873V8.0025H7.42873V6.855H8.56873V5.715H9.71623V4.5675H10.8562V3.4275H13.1437V4.5675H14.2837V5.715H15.4312V6.855H16.5712V8.0025H17.7112V9.1425H18.8587V10.2825H19.9987V11.43H21.1387V12.57H23.4262V10.2825H22.2862V9.1425H21.1387V8.0025H19.9987V6.855H18.8587V5.715H17.7112V4.5675H16.5712V3.4275H15.4312V2.2875H14.2837V1.14H13.1437V0H10.8562V1.14H9.71623V2.2875H8.56873V3.4275H7.42873V4.5675H6.28873V5.715H5.14123V6.855H4.00123V8.0025H2.85373V9.1425H1.71373V10.2825H0.57373V12.57Z" fill="white" style="fill:white;fill-opacity:1;"/>
<path d="M19.9987 22.86H15.4312V17.145H14.2837V24H21.1387V13.71H19.9987V22.86Z" fill="white" style="fill:white;fill-opacity:1;"/>
<path d="M19.9989 12.5699H18.8589V13.7099H19.9989V12.5699Z" fill="white" style="fill:white;fill-opacity:1;"/>
<path d="M18.8589 11.4301H17.7114V12.5701H18.8589V11.4301Z" fill="white" style="fill:white;fill-opacity:1;"/>
<path d="M17.7113 10.2825H16.5713V11.43H17.7113V10.2825Z" fill="white" style="fill:white;fill-opacity:1;"/>
<path d="M16.5712 9.14246H15.4312V10.2825H16.5712V9.14246Z" fill="white" style="fill:white;fill-opacity:1;"/>
<path d="M15.4312 8.00244H14.2837V9.14244H15.4312V8.00244Z" fill="white" style="fill:white;fill-opacity:1;"/>
<path d="M14.2836 15.9976H13.1436V17.1451H14.2836V15.9976Z" fill="white" style="fill:white;fill-opacity:1;"/>
<path d="M14.2836 6.85498H13.1436V8.00248H14.2836V6.85498Z" fill="white" style="fill:white;fill-opacity:1;"/>
<path d="M13.1439 14.8575H10.8564V15.9975H13.1439V14.8575Z" fill="white" style="fill:white;fill-opacity:1;"/>
<path d="M13.1439 5.71497H10.8564V6.85497H13.1439V5.71497Z" fill="white" style="fill:white;fill-opacity:1;"/>
<path d="M10.8563 15.9976H9.71631V17.1451H10.8563V15.9976Z" fill="white" style="fill:white;fill-opacity:1;"/>
<path d="M10.8563 6.85498H9.71631V8.00248H10.8563V6.85498Z" fill="white" style="fill:white;fill-opacity:1;"/>
<path d="M9.71602 17.145H8.56852V22.86H4.00102V13.71H2.85352V24H9.71602V17.145Z" fill="white" style="fill:white;fill-opacity:1;"/>
<path d="M9.71635 8.00244H8.56885V9.14244H9.71635V8.00244Z" fill="white" style="fill:white;fill-opacity:1;"/>
<path d="M8.56871 9.14246H7.42871V10.2825H8.56871V9.14246Z" fill="white" style="fill:white;fill-opacity:1;"/>
<path d="M7.42857 10.2825H6.28857V11.43H7.42857V10.2825Z" fill="white" style="fill:white;fill-opacity:1;"/>
<path d="M6.28861 11.4301H5.14111V12.5701H6.28861V11.4301Z" fill="white" style="fill:white;fill-opacity:1;"/>
<path d="M5.14146 12.5699H4.00146V13.7099H5.14146V12.5699Z" fill="white" style="fill:white;fill-opacity:1;"/>
</g>
<defs>
<clipPath id="clip0_142_852">
<rect width="24" height="24" fill="white" style="fill:white;fill-opacity:1;"/>
</clipPath>
</defs>
</svg>
