<svg width="32" height="32" viewBox="0 0 32 32" fill="none" xmlns="http://www.w3.org/2000/svg">
<g clip-path="url(#clip0_14_21793)">
<path d="M30.4702 15.73H28.9502V17.26H30.4702V29.45H32.0002V12.69H30.4702V15.73Z" fill="black" style="fill:black;fill-opacity:1;"/>
<path d="M30.4702 29.45H28.9502V30.97H30.4702V29.45Z" fill="black" style="fill:black;fill-opacity:1;"/>
<path d="M30.4702 11.16H28.9502V12.69H30.4702V11.16Z" fill="black" style="fill:black;fill-opacity:1;"/>
<path d="M27.43 29.45H25.9V30.97H6.09004V29.45H4.57004V30.97H3.04004V32.5H28.95V30.97H27.43V29.45Z" fill="black" style="fill:black;fill-opacity:1;"/>
<path d="M25.8999 27.92H24.3799V29.45H25.8999V27.92Z" fill="black" style="fill:black;fill-opacity:1;"/>
<path d="M24.3796 26.4H22.8496V27.92H24.3796V26.4Z" fill="black" style="fill:black;fill-opacity:1;"/>
<path d="M25.8996 18.78H22.8496V20.31H25.8996V18.78Z" fill="black" style="fill:black;fill-opacity:1;"/>
<path d="M22.8501 24.88H21.3301V26.4H22.8501V24.88Z" fill="black" style="fill:black;fill-opacity:1;"/>
<path d="M21.3296 23.35H19.8096V24.88H21.3296V23.35Z" fill="black" style="fill:black;fill-opacity:1;"/>
<path d="M22.8496 20.31H19.8096V21.83H22.8496V20.31Z" fill="black" style="fill:black;fill-opacity:1;"/>
<path d="M21.3296 2.02002H19.8096V3.54002H21.3296V2.02002Z" fill="black" style="fill:black;fill-opacity:1;"/>
<path d="M19.8102 11.16H16.7602V12.69H15.2402V11.16H12.1902V12.69H10.6602V15.73H12.1902V17.26H13.7102V18.78H15.2402V20.31H16.7602V18.78H18.2802V17.26H19.8102V15.73H21.3302V12.69H19.8102V11.16Z" fill="black" style="fill:black;fill-opacity:1;"/>
<path d="M19.8104 21.83H12.1904V23.35H19.8104V21.83Z" fill="black" style="fill:black;fill-opacity:1;"/>
<path d="M19.8104 0.5H12.1904V2.02H19.8104V0.5Z" fill="black" style="fill:black;fill-opacity:1;"/>
<path d="M12.1902 23.35H10.6602V24.88H12.1902V23.35Z" fill="black" style="fill:black;fill-opacity:1;"/>
<path d="M12.1896 20.31H9.13965V21.83H12.1896V20.31Z" fill="black" style="fill:black;fill-opacity:1;"/>
<path d="M12.1902 2.02002H10.6602V3.54002H12.1902V2.02002Z" fill="black" style="fill:black;fill-opacity:1;"/>
<path d="M10.6596 24.88H9.13965V26.4H10.6596V24.88Z" fill="black" style="fill:black;fill-opacity:1;"/>
<path d="M9.14012 26.4H7.62012V27.92H9.14012V26.4Z" fill="black" style="fill:black;fill-opacity:1;"/>
<path d="M9.13984 18.78H6.08984V20.31H9.13984V18.78Z" fill="black" style="fill:black;fill-opacity:1;"/>
<path d="M7.61984 27.92H6.08984V29.45H7.61984V27.92Z" fill="black" style="fill:black;fill-opacity:1;"/>
<path d="M4.57004 17.26H3.04004V18.78H6.09004V6.58998H25.9V18.78H28.95V17.26H27.43V11.16H28.95V9.63998H27.43V5.06998H22.85V3.53998H21.33V5.06998H10.66V3.53998H9.14004V5.06998H4.57004V9.63998H3.04004V11.16H4.57004V17.26Z" fill="black" style="fill:black;fill-opacity:1;"/>
<path d="M3.03953 29.45H1.51953V30.97H3.03953V29.45Z" fill="black" style="fill:black;fill-opacity:1;"/>
<path d="M3.03953 11.16H1.51953V12.69H3.03953V11.16Z" fill="black" style="fill:black;fill-opacity:1;"/>
<path d="M1.52 17.26H3.04V15.73H1.52V12.69H0V29.45H1.52V17.26Z" fill="black" style="fill:black;fill-opacity:1;"/>
</g>
<defs>
<clipPath id="clip0_14_21793">
<rect width="32" height="32" fill="white" style="fill:white;fill-opacity:1;"/>
</clipPath>
</defs>
</svg>
