<svg width="24" height="24" viewBox="0 0 24 24" fill="none" xmlns="http://www.w3.org/2000/svg">
<g clip-path="url(#clip0_142_1008)">
<path d="M18.8587 6.85498V10.2825H14.2837V12.57H18.8587V15.9975H19.9987V14.8575H21.1462V13.7175H22.2862V12.57H23.4262V10.2825H22.2862V9.14248H21.1462V8.00248H19.9987V6.85498H18.8587Z" fill="white" style="fill:white;fill-opacity:1;"/>
<path d="M16.5712 15.9975H15.4312V20.5725H16.5712V15.9975Z" fill="white" style="fill:white;fill-opacity:1;"/>
<path d="M16.5712 1.14001H15.4312V6.85501H16.5712V1.14001Z" fill="white" style="fill:white;fill-opacity:1;"/>
<path d="M10.8563 22.86V21.7125H15.4313V20.5725H10.8563V5.71503H9.71631V22.86H10.8563Z" fill="white" style="fill:white;fill-opacity:1;"/>
<path d="M9.71607 22.86H6.28857V24H9.71607V22.86Z" fill="white" style="fill:white;fill-opacity:1;"/>
<path d="M8.56871 12.57H7.42871V14.8575H8.56871V12.57Z" fill="white" style="fill:white;fill-opacity:1;"/>
<path d="M9.71621 4.57501H7.42871V5.71501H9.71621V4.57501Z" fill="white" style="fill:white;fill-opacity:1;"/>
<path d="M6.28896 21.7125H4.00146V22.86H6.28896V21.7125Z" fill="white" style="fill:white;fill-opacity:1;"/>
<path d="M7.42861 3.42749H5.14111V4.57499H7.42861V3.42749Z" fill="white" style="fill:white;fill-opacity:1;"/>
<path d="M4.00137 20.5725H1.71387V21.7125H4.00137V20.5725Z" fill="white" style="fill:white;fill-opacity:1;"/>
<path d="M5.14133 2.28748H2.86133V3.42748H5.14133V2.28748Z" fill="white" style="fill:white;fill-opacity:1;"/>
<path d="M1.71373 0V1.14H0.57373V20.5725H1.71373V2.2875H2.86123V1.14H15.4312V0H1.71373Z" fill="white" style="fill:white;fill-opacity:1;"/>
</g>
<defs>
<clipPath id="clip0_142_1008">
<rect width="24" height="24" fill="white" style="fill:white;fill-opacity:1;"/>
</clipPath>
</defs>
</svg>
