<svg width="93" height="93" viewBox="0 0 93 93" fill="none" xmlns="http://www.w3.org/2000/svg">
<path d="M92.9995 24.3687H88.582V33.2037H92.9995V24.3687Z" fill="white" style="fill:white;fill-opacity:1;"/>
<path d="M79.7184 42.0677H84.1359V59.7958H53.1553V64.2278H57.5728V68.6453H53.1553V73.0919H84.1359V81.956H88.5825V33.2036H79.7184V42.0677ZM66.4368 68.6308H61.9903V64.2278H66.4368V68.6308ZM84.1359 68.6308H75.2718V64.2278H84.1359V68.6308Z" fill="white" style="fill:white;fill-opacity:1;"/>
<path d="M84.1356 28.7864V24.3689H88.5821V19.9224H79.718V24.3689H75.2715V33.2039H79.718V28.7864H84.1356Z" fill="white" style="fill:white;fill-opacity:1;"/>
<path d="M48.7089 81.9417V77.4951H44.2914V81.9417H8.86426V86.3592H84.1361V81.9417H48.7089Z" fill="white" style="fill:white;fill-opacity:1;"/>
<path d="M61.9907 46.4852V50.9317H66.4373V55.3492H70.8548V50.9317H75.2723V46.4852H79.7189V42.0677H75.2723V37.6502H70.8548V33.2036H66.4373V37.6502H61.9907V42.0677H57.5732V46.4852H61.9907Z" fill="white" style="fill:white;fill-opacity:1;"/>
<path d="M57.5728 37.6504H53.1553V42.0679H57.5728V37.6504Z" fill="white" style="fill:white;fill-opacity:1;"/>
<path d="M57.5728 11.0581H53.1553V24.3687H57.5728V11.0581Z" fill="white" style="fill:white;fill-opacity:1;"/>
<path d="M53.1555 73.0776H48.709V77.4951H53.1555V73.0776Z" fill="white" style="fill:white;fill-opacity:1;"/>
<path d="M53.1555 55.3496H48.709V59.7962H53.1555V55.3496Z" fill="white" style="fill:white;fill-opacity:1;"/>
<path d="M53.1555 33.2036H48.709V37.6502H53.1555V33.2036Z" fill="white" style="fill:white;fill-opacity:1;"/>
<path d="M48.7085 64.2134H44.291V68.6309H48.7085V64.2134Z" fill="white" style="fill:white;fill-opacity:1;"/>
<path d="M48.7085 50.9316H44.291V55.3491H48.7085V50.9316Z" fill="white" style="fill:white;fill-opacity:1;"/>
<path d="M48.7088 28.7862H53.1554V24.3687H39.8447V28.7862H44.2913V33.2037H48.7088V28.7862Z" fill="white" style="fill:white;fill-opacity:1;"/>
<path d="M48.7085 15.5049H44.291V19.9224H48.7085V15.5049Z" fill="white" style="fill:white;fill-opacity:1;"/>
<path d="M53.1554 6.64062H39.8447V11.0581H53.1554V6.64062Z" fill="white" style="fill:white;fill-opacity:1;"/>
<path d="M44.2913 73.0776H39.8447V77.4951H44.2913V73.0776Z" fill="white" style="fill:white;fill-opacity:1;"/>
<path d="M44.2913 55.3496H39.8447V59.7962H44.2913V55.3496Z" fill="white" style="fill:white;fill-opacity:1;"/>
<path d="M44.2913 33.2036H39.8447V37.6502H44.2913V33.2036Z" fill="white" style="fill:white;fill-opacity:1;"/>
<path d="M39.8443 37.6504H35.4268V42.0679H39.8443V37.6504Z" fill="white" style="fill:white;fill-opacity:1;"/>
<path d="M39.8443 11.0581H35.4268V24.3687H39.8443V11.0581Z" fill="white" style="fill:white;fill-opacity:1;"/>
<path d="M17.7278 46.4852V50.9317H22.1453V55.3492H26.5628V50.9317H31.0094V46.4852H35.4269V42.0677H31.0094V37.6502H26.5628V33.2036H22.1453V37.6502H17.7278V42.0677H13.2812V46.4852H17.7278Z" fill="white" style="fill:white;fill-opacity:1;"/>
<path d="M8.86453 28.7864H13.282V33.2039H17.7286V24.3689H13.282V19.9224H4.41797V24.3689H8.86453V28.7864Z" fill="white" style="fill:white;fill-opacity:1;"/>
<path d="M39.8452 73.0775V68.6309H35.4277V64.228H39.8452V59.8105H8.86453V42.0823H13.282V33.2183H4.41797V81.9561H8.86453V73.092L39.8452 73.0775ZM26.5636 64.228H31.0102V68.6455H26.5636V64.228ZM8.86453 64.228H17.7286V68.6455H8.86453V64.228Z" fill="white" style="fill:white;fill-opacity:1;"/>
<path d="M4.4175 24.3687H0V33.2037H4.4175V24.3687Z" fill="white" style="fill:white;fill-opacity:1;"/>
</svg>
