<svg width="24" height="24" viewBox="0 0 24 24" fill="none" xmlns="http://www.w3.org/2000/svg">
<path d="M22.2865 10.8599V13.1474H21.1465V14.2874H23.4265V9.7124H21.1465V10.8599H22.2865Z" fill="white" style="fill:white;fill-opacity:1;"/>
<path d="M21.1465 17.715H19.999V18.855H21.1465V17.715Z" fill="white" style="fill:white;fill-opacity:1;"/>
<path d="M21.1465 14.2875H19.999V16.575H21.1465V14.2875Z" fill="white" style="fill:white;fill-opacity:1;"/>
<path d="M21.1465 7.4325H19.999V9.7125H21.1465V7.4325Z" fill="white" style="fill:white;fill-opacity:1;"/>
<path d="M21.1465 5.1449H19.999V6.2849H21.1465V5.1449Z" fill="white" style="fill:white;fill-opacity:1;"/>
<path d="M19.9994 18.855H18.8594V20.0025H19.9994V18.855Z" fill="white" style="fill:white;fill-opacity:1;"/>
<path d="M19.9994 16.575H18.8594V17.715H19.9994V16.575Z" fill="white" style="fill:white;fill-opacity:1;"/>
<path d="M19.9994 6.28491H18.8594V7.43241H19.9994V6.28491Z" fill="white" style="fill:white;fill-opacity:1;"/>
<path d="M19.9994 4.005H18.8594V5.145H19.9994V4.005Z" fill="white" style="fill:white;fill-opacity:1;"/>
<path d="M18.8594 20.0024H17.7119V21.1424H18.8594V20.0024Z" fill="white" style="fill:white;fill-opacity:1;"/>
<path d="M18.8594 9.7124H17.7119V14.2874H18.8594V9.7124Z" fill="white" style="fill:white;fill-opacity:1;"/>
<path d="M18.8594 2.85742H17.7119V4.00492H18.8594V2.85742Z" fill="white" style="fill:white;fill-opacity:1;"/>
<path d="M17.7113 18.855H16.5713V20.0025H17.7113V18.855Z" fill="white" style="fill:white;fill-opacity:1;"/>
<path d="M17.7113 14.2875H16.5713V16.575H17.7113V14.2875Z" fill="white" style="fill:white;fill-opacity:1;"/>
<path d="M17.7113 7.4325H16.5713V9.7125H17.7113V7.4325Z" fill="white" style="fill:white;fill-opacity:1;"/>
<path d="M17.7113 4.005H16.5713V5.145H17.7113V4.005Z" fill="white" style="fill:white;fill-opacity:1;"/>
<path d="M16.5717 20.0024H14.2842V21.1424H16.5717V20.0024Z" fill="white" style="fill:white;fill-opacity:1;"/>
<path d="M16.5717 16.575H14.2842V17.715H16.5717V16.575Z" fill="white" style="fill:white;fill-opacity:1;"/>
<path d="M16.5717 6.28491H14.2842V7.43241H16.5717V6.28491Z" fill="white" style="fill:white;fill-opacity:1;"/>
<path d="M16.5717 2.85742H14.2842V4.00492H16.5717V2.85742Z" fill="white" style="fill:white;fill-opacity:1;"/>
<path d="M13.1443 22.29H10.8568V21.1425H9.7168V23.43H14.2843V21.1425H13.1443V22.29Z" fill="white" style="fill:white;fill-opacity:1;"/>
<path d="M14.2843 17.715H9.7168V18.855H14.2843V17.715Z" fill="white" style="fill:white;fill-opacity:1;"/>
<path d="M10.8568 14.2874H13.1443V13.1474H14.2843V10.8599H13.1443V9.7124H10.8568V10.8599H9.7168V13.1474H10.8568V14.2874Z" fill="white" style="fill:white;fill-opacity:1;"/>
<path d="M14.2843 5.1449H9.7168V6.2849H14.2843V5.1449Z" fill="white" style="fill:white;fill-opacity:1;"/>
<path d="M10.8568 1.71745H13.1443V2.85745H14.2843V0.569946H9.7168V2.85745H10.8568V1.71745Z" fill="white" style="fill:white;fill-opacity:1;"/>
<path d="M9.71719 20.0024H7.42969V21.1424H9.71719V20.0024Z" fill="white" style="fill:white;fill-opacity:1;"/>
<path d="M9.71719 16.575H7.42969V17.715H9.71719V16.575Z" fill="white" style="fill:white;fill-opacity:1;"/>
<path d="M9.71719 6.28491H7.42969V7.43241H9.71719V6.28491Z" fill="white" style="fill:white;fill-opacity:1;"/>
<path d="M9.71719 2.85742H7.42969V4.00492H9.71719V2.85742Z" fill="white" style="fill:white;fill-opacity:1;"/>
<path d="M7.42906 18.855H6.28906V20.0025H7.42906V18.855Z" fill="white" style="fill:white;fill-opacity:1;"/>
<path d="M7.42906 14.2875H6.28906V16.575H7.42906V14.2875Z" fill="white" style="fill:white;fill-opacity:1;"/>
<path d="M7.42906 7.4325H6.28906V9.7125H7.42906V7.4325Z" fill="white" style="fill:white;fill-opacity:1;"/>
<path d="M7.42906 4.005H6.28906V5.145H7.42906V4.005Z" fill="white" style="fill:white;fill-opacity:1;"/>
<path d="M6.2891 20.0024H5.1416V21.1424H6.2891V20.0024Z" fill="white" style="fill:white;fill-opacity:1;"/>
<path d="M6.2891 9.7124H5.1416V14.2874H6.2891V9.7124Z" fill="white" style="fill:white;fill-opacity:1;"/>
<path d="M6.2891 2.85742H5.1416V4.00492H6.2891V2.85742Z" fill="white" style="fill:white;fill-opacity:1;"/>
<path d="M5.14195 18.855H4.00195V20.0025H5.14195V18.855Z" fill="white" style="fill:white;fill-opacity:1;"/>
<path d="M5.14195 16.575H4.00195V17.715H5.14195V16.575Z" fill="white" style="fill:white;fill-opacity:1;"/>
<path d="M5.14195 6.28491H4.00195V7.43241H5.14195V6.28491Z" fill="white" style="fill:white;fill-opacity:1;"/>
<path d="M5.14195 4.005H4.00195V5.145H5.14195V4.005Z" fill="white" style="fill:white;fill-opacity:1;"/>
<path d="M4.00133 17.715H2.86133V18.855H4.00133V17.715Z" fill="white" style="fill:white;fill-opacity:1;"/>
<path d="M4.00133 14.2875H2.86133V16.575H4.00133V14.2875Z" fill="white" style="fill:white;fill-opacity:1;"/>
<path d="M4.00133 7.4325H2.86133V9.7125H4.00133V7.4325Z" fill="white" style="fill:white;fill-opacity:1;"/>
<path d="M4.00133 5.1449H2.86133V6.2849H4.00133V5.1449Z" fill="white" style="fill:white;fill-opacity:1;"/>
<path d="M2.86172 13.1474H1.71422V10.8599H2.86172V9.7124H0.574219V14.2874H2.86172V13.1474Z" fill="white" style="fill:white;fill-opacity:1;"/>
</svg>
