<svg width="93" height="93" viewBox="0 0 93 93" fill="none" xmlns="http://www.w3.org/2000/svg">
<g clip-path="url(#clip0_399_6777)">
<path d="M79.7183 4.41748H75.3008V88.5534H79.7183V4.41748Z" fill="white" style="fill:white;fill-opacity:1;"/>
<path d="M75.3006 88.5532H66.4365V92.9998H75.3006V88.5532Z" fill="white" style="fill:white;fill-opacity:1;"/>
<path d="M66.437 84.1357H62.0195V88.5532H66.437V84.1357Z" fill="white" style="fill:white;fill-opacity:1;"/>
<path d="M66.4365 22.1455H62.019V26.563H57.5724V30.9805H53.1549V35.4271H48.7084V39.8446H44.2909V44.2621H39.8734V39.8446H35.4268V35.4271H31.0093V39.8446H26.5918V44.2621H31.0093V48.7086H35.4268V53.1261H39.8734V57.5727H44.2909V53.1261H48.7084V48.7086H53.1549V44.2621H57.5724V39.8446H62.019V35.4271H66.4365V30.9805H70.854V26.563H66.4365V22.1455Z" fill="white" style="fill:white;fill-opacity:1;"/>
<path d="M62.0188 79.7183H57.5723V84.1358H62.0188V79.7183Z" fill="white" style="fill:white;fill-opacity:1;"/>
<path d="M57.5728 75.272H53.1553V79.7185H57.5728V75.272Z" fill="white" style="fill:white;fill-opacity:1;"/>
<path d="M53.1546 70.8545H48.708V75.272H53.1546V70.8545Z" fill="white" style="fill:white;fill-opacity:1;"/>
<path d="M48.7085 66.4077H44.291V70.8543H48.7085V66.4077Z" fill="white" style="fill:white;fill-opacity:1;"/>
<path d="M44.2905 70.8545H39.873V75.272H44.2905V70.8545Z" fill="white" style="fill:white;fill-opacity:1;"/>
<path d="M39.8733 75.272H35.4268V79.7185H39.8733V75.272Z" fill="white" style="fill:white;fill-opacity:1;"/>
<path d="M35.4273 79.7183H31.0098V84.1358H35.4273V79.7183Z" fill="white" style="fill:white;fill-opacity:1;"/>
<path d="M31.0093 84.1357H26.5918V88.5532H31.0093V84.1357Z" fill="white" style="fill:white;fill-opacity:1;"/>
<path d="M75.3004 0H17.7275V4.4175H75.3004V0Z" fill="white" style="fill:white;fill-opacity:1;"/>
<path d="M26.5916 88.5532H17.7275V92.9998H26.5916V88.5532Z" fill="white" style="fill:white;fill-opacity:1;"/>
<path d="M17.7278 4.41748H13.2812V88.5534H17.7278V4.41748Z" fill="white" style="fill:white;fill-opacity:1;"/>
</g>
<defs>
<clipPath id="clip0_399_6777">
<rect width="93" height="93" fill="white" style="fill:white;fill-opacity:1;"/>
</clipPath>
</defs>
</svg>
