<svg width="24" height="24" viewBox="0 0 24 24" fill="none" xmlns="http://www.w3.org/2000/svg">
<path d="M23.9999 13.7137H22.8599V14.8612H23.9999V13.7137Z" fill="white" style="fill:white;fill-opacity:1;"/>
<path d="M22.8598 12.5737H20.5723V13.7137H22.8598V12.5737Z" fill="white" style="fill:white;fill-opacity:1;"/>
<path d="M21.7123 10.2863H20.5723V11.4338H21.7123V10.2863Z" fill="white" style="fill:white;fill-opacity:1;"/>
<path d="M17.145 11.4337V9.14624H16.005V7.99874H14.8575V5.71874H16.005V4.57124H20.5725V5.71874H21.7125V10.2862H22.86V3.43124H21.7125V2.28374H20.5725V1.14374H16.005V2.28374H14.8575V3.43124H13.7175V6.85874H10.29V3.43124H9.14246V2.28374H8.00246V1.14374H3.42746V2.28374H2.28746V3.43124H1.14746V10.2862H2.28746V5.71874H3.42746V4.57124H8.00246V5.71874H9.14246V7.99874H8.00246V9.14624H6.86246V11.4337H3.42746V12.5737H6.86246V17.1412H8.00246V11.4337H9.14246V10.2862H14.8575V11.4337H16.005V17.1412H17.145V12.5737H20.5725V11.4337H17.145Z" fill="white" style="fill:white;fill-opacity:1;"/>
<path d="M19.4327 21.7162H18.2852V22.8562H19.4327V21.7162Z" fill="white" style="fill:white;fill-opacity:1;"/>
<path d="M18.285 20.5762H17.145V21.7162H18.285V20.5762Z" fill="white" style="fill:white;fill-opacity:1;"/>
<path d="M17.1449 19.4287H14.8574V20.5762H17.1449V19.4287Z" fill="white" style="fill:white;fill-opacity:1;"/>
<path d="M16.0049 17.1412H14.8574V18.2887H16.0049V17.1412Z" fill="white" style="fill:white;fill-opacity:1;"/>
<path d="M14.8573 12.5737H13.7173V14.8612H14.8573V12.5737Z" fill="white" style="fill:white;fill-opacity:1;"/>
<path d="M14.8576 18.2888H9.14258V19.4288H14.8576V18.2888Z" fill="white" style="fill:white;fill-opacity:1;"/>
<path d="M13.7175 16.0012H10.29V17.1412H13.7175V16.0012Z" fill="white" style="fill:white;fill-opacity:1;"/>
<path d="M10.2901 12.5737H9.14258V14.8612H10.2901V12.5737Z" fill="white" style="fill:white;fill-opacity:1;"/>
<path d="M9.14244 17.1412H8.00244V18.2887H9.14244V17.1412Z" fill="white" style="fill:white;fill-opacity:1;"/>
<path d="M9.1423 19.4287H6.8623V20.5762H9.1423V19.4287Z" fill="white" style="fill:white;fill-opacity:1;"/>
<path d="M6.86234 20.5762H5.71484V21.7162H6.86234V20.5762Z" fill="white" style="fill:white;fill-opacity:1;"/>
<path d="M5.7152 21.7162H4.5752V22.8562H5.7152V21.7162Z" fill="white" style="fill:white;fill-opacity:1;"/>
<path d="M3.4276 10.2863H2.2876V11.4338H3.4276V10.2863Z" fill="white" style="fill:white;fill-opacity:1;"/>
<path d="M3.42746 12.5737H1.14746V13.7137H3.42746V12.5737Z" fill="white" style="fill:white;fill-opacity:1;"/>
<path d="M1.1475 13.7137H0V14.8612H1.1475V13.7137Z" fill="white" style="fill:white;fill-opacity:1;"/>
</svg>
