<svg width="24" height="24" viewBox="0 0 24 24" fill="none" xmlns="http://www.w3.org/2000/svg">
<g clip-path="url(#clip0_142_974)">
<path d="M22.8523 9.14252H21.7123V11.43H20.5723V12.57H21.7123V14.8575H22.8523V12.57H23.9998V11.43H22.8523V9.14252Z" fill="white" style="fill:white;fill-opacity:1;"/>
<path d="M21.7123 14.8575H20.5723V17.145H21.7123V14.8575Z" fill="white" style="fill:white;fill-opacity:1;"/>
<path d="M21.7123 6.85498H20.5723V9.14248H21.7123V6.85498Z" fill="white" style="fill:white;fill-opacity:1;"/>
<path d="M20.5723 17.145H19.4248V19.425H20.5723V17.145Z" fill="white" style="fill:white;fill-opacity:1;"/>
<path d="M20.5723 4.5675H19.4248V6.85501H20.5723V4.5675Z" fill="white" style="fill:white;fill-opacity:1;"/>
<path d="M18.2852 18.285H17.1377V20.5725H19.4252V19.425H18.2852V18.285Z" fill="white" style="fill:white;fill-opacity:1;"/>
<path d="M19.4252 3.42749H17.1377V4.56749H19.4252V3.42749Z" fill="white" style="fill:white;fill-opacity:1;"/>
<path d="M17.1374 20.5725H14.8574V21.7125H17.1374V20.5725Z" fill="white" style="fill:white;fill-opacity:1;"/>
<path d="M17.1374 17.145H14.8574V18.285H17.1374V17.145Z" fill="white" style="fill:white;fill-opacity:1;"/>
<path d="M15.9974 14.8575H14.8574V15.9975H15.9974V14.8575Z" fill="white" style="fill:white;fill-opacity:1;"/>
<path d="M17.1374 2.28748H14.8574V3.42748H17.1374V2.28748Z" fill="white" style="fill:white;fill-opacity:1;"/>
<path d="M14.8575 10.2825H13.71V12.57H14.8575V10.2825Z" fill="white" style="fill:white;fill-opacity:1;"/>
<path d="M12.5701 20.5725H11.4226V21.7125H9.14258V22.86H11.4226V24H12.5701V22.86H14.8576V21.7125H12.5701V20.5725Z" fill="white" style="fill:white;fill-opacity:1;"/>
<path d="M14.8576 15.9975H9.14258V17.145H14.8576V15.9975Z" fill="white" style="fill:white;fill-opacity:1;"/>
<path d="M13.7102 13.71H10.2827V14.8575H13.7102V13.71Z" fill="white" style="fill:white;fill-opacity:1;"/>
<path d="M11.4226 3.4275H12.5701V2.2875H14.8576V1.14H12.5701V0H11.4226V1.14H9.14258V2.2875H11.4226V3.4275Z" fill="white" style="fill:white;fill-opacity:1;"/>
<path d="M10.2826 10.2825H9.14258V12.57H10.2826V10.2825Z" fill="white" style="fill:white;fill-opacity:1;"/>
<path d="M9.14248 20.5725H6.85498V21.7125H9.14248V20.5725Z" fill="white" style="fill:white;fill-opacity:1;"/>
<path d="M9.14248 17.145H6.85498V18.285H9.14248V17.145Z" fill="white" style="fill:white;fill-opacity:1;"/>
<path d="M9.14262 14.8575H7.99512V15.9975H9.14262V14.8575Z" fill="white" style="fill:white;fill-opacity:1;"/>
<path d="M9.14248 2.28748H6.85498V3.42748H9.14248V2.28748Z" fill="white" style="fill:white;fill-opacity:1;"/>
<path d="M7.99498 9.1425H9.14248V8.0025H14.8575V9.1425H15.9975V14.8575H17.1375V6.855H15.9975V5.715H14.8575V4.5675H9.14248V5.715H7.99498V6.855H6.85498V14.8575H7.99498V9.1425Z" fill="white" style="fill:white;fill-opacity:1;"/>
<path d="M5.71488 18.285V19.425H4.56738V20.5725H6.85488V18.285H5.71488Z" fill="white" style="fill:white;fill-opacity:1;"/>
<path d="M6.85488 3.42749H4.56738V4.56749H6.85488V3.42749Z" fill="white" style="fill:white;fill-opacity:1;"/>
<path d="M4.56773 17.145H3.42773V19.425H4.56773V17.145Z" fill="white" style="fill:white;fill-opacity:1;"/>
<path d="M4.56773 4.5675H3.42773V6.85501H4.56773V4.5675Z" fill="white" style="fill:white;fill-opacity:1;"/>
<path d="M3.42729 14.8575H2.27979V17.145H3.42729V14.8575Z" fill="white" style="fill:white;fill-opacity:1;"/>
<path d="M3.42729 6.85498H2.27979V9.14248H3.42729V6.85498Z" fill="white" style="fill:white;fill-opacity:1;"/>
<path d="M3.4275 12.57V11.43H2.28V9.14252H1.14V11.43H0V12.57H1.14V14.8575H2.28V12.57H3.4275Z" fill="white" style="fill:white;fill-opacity:1;"/>
</g>
<defs>
<clipPath id="clip0_142_974">
<rect width="24" height="24" fill="white" style="fill:white;fill-opacity:1;"/>
</clipPath>
</defs>
</svg>
