<svg width="93" height="93" viewBox="0 0 93 93" fill="none" xmlns="http://www.w3.org/2000/svg">
<g clip-path="url(#clip0_399_6738)">
<path d="M92.9995 35.4272H88.582V84.136H92.9995V35.4272Z" fill="white" style="fill:white;fill-opacity:1;"/>
<path d="M92.9995 8.86426H88.582V22.1458H92.9995V8.86426Z" fill="white" style="fill:white;fill-opacity:1;"/>
<path d="M88.5823 84.1357H84.1357V88.5823H88.5823V84.1357Z" fill="white" style="fill:white;fill-opacity:1;"/>
<path d="M88.5823 22.1455H84.1357V26.563H88.5823V22.1455Z" fill="white" style="fill:white;fill-opacity:1;"/>
<path d="M88.5823 4.41748H84.1357V8.86404H88.5823V4.41748Z" fill="white" style="fill:white;fill-opacity:1;"/>
<path d="M84.1363 26.563H79.7188V31.0096H84.1363V26.563Z" fill="white" style="fill:white;fill-opacity:1;"/>
<path d="M84.1363 17.728H79.7188V22.1455H84.1363V17.728Z" fill="white" style="fill:white;fill-opacity:1;"/>
<path d="M84.1361 88.5825H8.86426V93H84.1361V88.5825Z" fill="white" style="fill:white;fill-opacity:1;"/>
<path d="M79.7183 31.0098H75.3008V35.4273H79.7183V31.0098Z" fill="white" style="fill:white;fill-opacity:1;"/>
<path d="M79.7183 13.2817H75.3008V17.7283H79.7183V13.2817Z" fill="white" style="fill:white;fill-opacity:1;"/>
<path d="M84.1361 0H70.8545V4.4175H84.1361V0Z" fill="white" style="fill:white;fill-opacity:1;"/>
<path d="M75.3011 35.4272H70.8545V39.8447H75.3011V35.4272Z" fill="white" style="fill:white;fill-opacity:1;"/>
<path d="M75.3011 17.728H70.8545V22.1455H75.3011V17.728Z" fill="white" style="fill:white;fill-opacity:1;"/>
<path d="M75.3011 8.86426H70.8545V13.2818H75.3011V8.86426Z" fill="white" style="fill:white;fill-opacity:1;"/>
<path d="M70.854 39.8447H66.4365V44.2913H70.854V39.8447Z" fill="white" style="fill:white;fill-opacity:1;"/>
<path d="M70.854 22.1455H66.4365V26.563H70.854V22.1455Z" fill="white" style="fill:white;fill-opacity:1;"/>
<path d="M70.854 4.41748H66.4365V8.86404H70.854V4.41748Z" fill="white" style="fill:white;fill-opacity:1;"/>
<path d="M66.4368 44.291H61.9902V48.7085H66.4368V44.291Z" fill="white" style="fill:white;fill-opacity:1;"/>
<path d="M66.4368 26.563H61.9902V31.0096H66.4368V26.563Z" fill="white" style="fill:white;fill-opacity:1;"/>
<path d="M66.4368 8.86426H61.9902V13.2818H66.4368V8.86426Z" fill="white" style="fill:white;fill-opacity:1;"/>
<path d="M61.9907 48.709H57.5732V53.1555H61.9907V48.709Z" fill="white" style="fill:white;fill-opacity:1;"/>
<path d="M61.9907 31.0098H57.5732V35.4273H61.9907V31.0098Z" fill="white" style="fill:white;fill-opacity:1;"/>
<path d="M61.9907 13.2817H57.5732V17.7283H61.9907V13.2817Z" fill="white" style="fill:white;fill-opacity:1;"/>
<path d="M57.5728 44.291H53.1553V48.7085H57.5728V44.291Z" fill="white" style="fill:white;fill-opacity:1;"/>
<path d="M57.5728 35.4272H53.1553V39.8447H57.5728V35.4272Z" fill="white" style="fill:white;fill-opacity:1;"/>
<path d="M57.5728 17.728H53.1553V22.1455H57.5728V17.728Z" fill="white" style="fill:white;fill-opacity:1;"/>
<path d="M48.7083 48.7088H44.2908V44.2913H39.8443V35.4272H35.4268V57.5729H57.5724V53.1554H48.7083V48.7088Z" fill="white" style="fill:white;fill-opacity:1;"/>
<path d="M53.1555 39.8447H48.709V44.2913H53.1555V39.8447Z" fill="white" style="fill:white;fill-opacity:1;"/>
<path d="M53.1555 22.1455H48.709V26.563H53.1555V22.1455Z" fill="white" style="fill:white;fill-opacity:1;"/>
<path d="M48.7085 35.4272H44.291V39.8447H48.7085V35.4272Z" fill="white" style="fill:white;fill-opacity:1;"/>
<path d="M48.7085 26.563H44.291V31.0096H48.7085V26.563Z" fill="white" style="fill:white;fill-opacity:1;"/>
<path d="M44.2913 31.0098H39.8447V35.4273H44.2913V31.0098Z" fill="white" style="fill:white;fill-opacity:1;"/>
<path d="M53.1555 4.41748H8.86426V8.86404H53.1555V4.41748Z" fill="white" style="fill:white;fill-opacity:1;"/>
<path d="M8.86453 84.1357H4.41797V88.5823H8.86453V84.1357Z" fill="white" style="fill:white;fill-opacity:1;"/>
<path d="M8.86453 8.86426H4.41797V13.2818H8.86453V8.86426Z" fill="white" style="fill:white;fill-opacity:1;"/>
<path d="M4.4175 13.2817H0V84.1361H4.4175V13.2817Z" fill="white" style="fill:white;fill-opacity:1;"/>
</g>
<defs>
<clipPath id="clip0_399_6738">
<rect width="93" height="93" fill="white" style="fill:white;fill-opacity:1;"/>
</clipPath>
</defs>
</svg>
